# xmcd
#
# Track frame offsets:
#	150
#	14524
#	29786
#	43424
#	57240
#	70409
#	85153
#	99956
#	111379
#	127684
#	141190
#	154843
#	168796
#	183024
#
# Disc length: 2671 seconds
#
# Revision: 1
# Processed by: cddbd v1.5.2PL0 Copyright (c) Steve Scherf et al.
# Submitted via: audiograbber 1.83.01
#
DISCID=bb0a6d0e
DTITLE=Erich  und Jimi - MIA SAN MIA
DYEAR=2007
DGENRE=Country
TTITLE0=Mia san Mia
TTITLE1=boarisches Madl
TTITLE2=Heisse Nächte, coole Drinks
TTITLE3=Musi Blues
TTITLE4=Heid ge ma nia hoam
TTITLE5=Dann träum ich dich in meine Arme
TTITLE6=I hab da was
TTITLE7=Country Time
TTITLE8=Ich hab mein Herz am Ballermann verloren
TTITLE9=Sommerwind
TTITLE10=Du bist so schön wie Mona Lisa
TTITLE11=Alles  Bingo
TTITLE12=Ich wünsch Dir einen schönen  Abend
TTITLE13=I bin koa  Poet
EXTD=
EXTT0=
EXTT1=
EXTT2=
EXTT3=
EXTT4=
EXTT5=
EXTT6=
EXTT7=
EXTT8=
EXTT9=
EXTT10=
EXTT11=
EXTT12=
EXTT13=
PLAYORDER=
